<mxfile host="app.diagrams.net" agent="Mozilla/5.0 (Windows NT 10.0; Win64; x64; rv:143.0) Gecko/20100101 Firefox/143.0" version="28.2.5">
  <diagram name="Página-1" id="0lFC8JYQDPyYa-0Zj6cP">
    <mxGraphModel dx="4990" dy="1945" grid="1" gridSize="10" guides="1" tooltips="1" connect="1" arrows="1" fold="1" page="1" pageScale="1" pageWidth="827" pageHeight="1169" math="0" shadow="0">
      <root>
        <mxCell id="0" />
        <mxCell id="1" parent="0" />
        <mxCell id="Hf0nUSn8OMHUZp1qof5B-4" value="" style="edgeStyle=orthogonalEdgeStyle;rounded=1;orthogonalLoop=1;jettySize=auto;html=1;fontFamily=Helvetica;fontSize=16;fontColor=default;fontStyle=0;labelBackgroundColor=none;curved=0;endArrow=none;endFill=0;dashed=1;fillColor=#b1ddf0;strokeColor=#10739e;" parent="1" source="Hf0nUSn8OMHUZp1qof5B-1" target="Hf0nUSn8OMHUZp1qof5B-3" edge="1">
          <mxGeometry relative="1" as="geometry" />
        </mxCell>
        <mxCell id="GIleygXYsajchvQRSn_2-2" style="edgeStyle=orthogonalEdgeStyle;rounded=1;orthogonalLoop=1;jettySize=auto;html=1;entryX=0;entryY=0.5;entryDx=0;entryDy=0;dashed=1;strokeColor=#ae4132;align=center;verticalAlign=middle;fontFamily=Helvetica;fontSize=16;fontColor=default;fontStyle=0;labelBackgroundColor=none;endArrow=none;endFill=0;fillColor=#fad9d5;exitX=1;exitY=0.5;exitDx=0;exitDy=0;curved=1;" parent="1" source="Hf0nUSn8OMHUZp1qof5B-3" target="GIleygXYsajchvQRSn_2-1" edge="1">
          <mxGeometry relative="1" as="geometry" />
        </mxCell>
        <mxCell id="Hf0nUSn8OMHUZp1qof5B-1" value="v2.1.2" style="ellipse;whiteSpace=wrap;html=1;aspect=fixed;fillColor=#b1ddf0;strokeColor=#10739e;labelPosition=center;verticalLabelPosition=top;align=center;verticalAlign=bottom;fontStyle=0;labelBackgroundColor=none;fontSize=16;" parent="1" vertex="1">
          <mxGeometry x="-480" y="280" width="40" height="40" as="geometry" />
        </mxCell>
        <mxCell id="Hf0nUSn8OMHUZp1qof5B-3" value="v2.2.0" style="ellipse;whiteSpace=wrap;html=1;aspect=fixed;fillColor=#b1ddf0;strokeColor=#10739e;labelPosition=center;verticalLabelPosition=top;align=center;verticalAlign=bottom;fontStyle=0;labelBackgroundColor=none;fontSize=16;" parent="1" vertex="1">
          <mxGeometry x="40" y="280" width="40" height="40" as="geometry" />
        </mxCell>
        <mxCell id="LOD-dvkLbclwCgtQcdtd-40" style="edgeStyle=orthogonalEdgeStyle;shape=connector;curved=1;rounded=1;orthogonalLoop=1;jettySize=auto;html=1;entryX=0;entryY=0.5;entryDx=0;entryDy=0;dashed=1;strokeColor=#56517e;align=center;verticalAlign=middle;fontFamily=Helvetica;fontSize=16;fontColor=default;fontStyle=0;labelBackgroundColor=none;endArrow=none;endFill=0;fillColor=#d0cee2;" edge="1" parent="1" source="Hf0nUSn8OMHUZp1qof5B-9" target="LOD-dvkLbclwCgtQcdtd-35">
          <mxGeometry relative="1" as="geometry" />
        </mxCell>
        <mxCell id="Hf0nUSn8OMHUZp1qof5B-9" value="v2.3.0" style="ellipse;whiteSpace=wrap;html=1;aspect=fixed;fillColor=#b1ddf0;strokeColor=#10739e;labelPosition=center;verticalLabelPosition=top;align=center;verticalAlign=bottom;fontStyle=0;labelBackgroundColor=none;fontSize=16;" parent="1" vertex="1">
          <mxGeometry x="960" y="280" width="40" height="40" as="geometry" />
        </mxCell>
        <mxCell id="Hf0nUSn8OMHUZp1qof5B-14" value="" style="edgeStyle=orthogonalEdgeStyle;shape=connector;curved=0;rounded=1;orthogonalLoop=1;jettySize=auto;html=1;dashed=1;strokeColor=#10739e;align=center;verticalAlign=middle;fontFamily=Helvetica;fontSize=16;fontColor=default;fontStyle=0;labelBackgroundColor=none;endArrow=none;endFill=0;fillColor=#b1ddf0;entryX=0;entryY=0.5;entryDx=0;entryDy=0;" parent="1" source="Hf0nUSn8OMHUZp1qof5B-11" target="GIleygXYsajchvQRSn_2-66" edge="1">
          <mxGeometry relative="1" as="geometry" />
        </mxCell>
        <mxCell id="Hf0nUSn8OMHUZp1qof5B-11" value="v2.3.1" style="ellipse;whiteSpace=wrap;html=1;aspect=fixed;fillColor=#b1ddf0;strokeColor=#10739e;labelPosition=center;verticalLabelPosition=top;align=center;verticalAlign=bottom;fontStyle=0;labelBackgroundColor=none;fontSize=16;" parent="1" vertex="1">
          <mxGeometry x="1440" y="280" width="40" height="40" as="geometry" />
        </mxCell>
        <mxCell id="Hf0nUSn8OMHUZp1qof5B-13" value="PRODUÇÃO" style="whiteSpace=wrap;html=1;fontSize=16;verticalAlign=middle;fillColor=#b1ddf0;strokeColor=#10739e;fontStyle=0;labelBackgroundColor=none;" parent="1" vertex="1">
          <mxGeometry x="3159" y="280" width="120" height="40" as="geometry" />
        </mxCell>
        <mxCell id="Hf0nUSn8OMHUZp1qof5B-19" value="" style="edgeStyle=orthogonalEdgeStyle;shape=connector;curved=0;rounded=1;orthogonalLoop=1;jettySize=auto;html=1;dashed=1;strokeColor=#b46504;align=center;verticalAlign=middle;fontFamily=Helvetica;fontSize=16;fontColor=default;fontStyle=0;labelBackgroundColor=none;endArrow=none;endFill=0;fillColor=#fad7ac;" parent="1" source="Hf0nUSn8OMHUZp1qof5B-16" target="Hf0nUSn8OMHUZp1qof5B-18" edge="1">
          <mxGeometry relative="1" as="geometry" />
        </mxCell>
        <mxCell id="GIleygXYsajchvQRSn_2-4" style="edgeStyle=orthogonalEdgeStyle;rounded=1;orthogonalLoop=1;jettySize=auto;html=1;dashed=1;strokeColor=#b46504;align=center;verticalAlign=middle;fontFamily=Helvetica;fontSize=16;fontColor=default;fontStyle=0;labelBackgroundColor=none;endArrow=none;endFill=0;curved=1;fillColor=#fad7ac;entryX=1;entryY=0.5;entryDx=0;entryDy=0;" parent="1" source="Hf0nUSn8OMHUZp1qof5B-16" target="Hf0nUSn8OMHUZp1qof5B-1" edge="1">
          <mxGeometry relative="1" as="geometry">
            <mxPoint x="260" y="370" as="targetPoint" />
          </mxGeometry>
        </mxCell>
        <mxCell id="Hf0nUSn8OMHUZp1qof5B-16" value="2041" style="ellipse;whiteSpace=wrap;html=1;aspect=fixed;fillColor=#fad7ac;strokeColor=#b46504;labelPosition=center;verticalLabelPosition=top;align=center;verticalAlign=bottom;fontStyle=0;labelBackgroundColor=none;fontSize=16;" parent="1" vertex="1">
          <mxGeometry x="-400" y="600" width="40" height="40" as="geometry" />
        </mxCell>
        <mxCell id="Hf0nUSn8OMHUZp1qof5B-21" value="" style="edgeStyle=orthogonalEdgeStyle;shape=connector;curved=0;rounded=1;orthogonalLoop=1;jettySize=auto;html=1;dashed=1;strokeColor=#b46504;align=center;verticalAlign=middle;fontFamily=Helvetica;fontSize=16;fontColor=default;fontStyle=0;labelBackgroundColor=none;endArrow=none;endFill=0;fillColor=#fad7ac;exitX=1;exitY=0.5;exitDx=0;exitDy=0;" parent="1" source="Hf0nUSn8OMHUZp1qof5B-18" target="Hf0nUSn8OMHUZp1qof5B-20" edge="1">
          <mxGeometry relative="1" as="geometry">
            <mxPoint x="-80" y="620" as="sourcePoint" />
          </mxGeometry>
        </mxCell>
        <mxCell id="Hf0nUSn8OMHUZp1qof5B-18" value="1612" style="ellipse;whiteSpace=wrap;html=1;aspect=fixed;fillColor=#fad7ac;strokeColor=#b46504;labelPosition=center;verticalLabelPosition=top;align=center;verticalAlign=bottom;fontStyle=0;labelBackgroundColor=none;fontSize=16;" parent="1" vertex="1">
          <mxGeometry x="-320" y="600" width="40" height="40" as="geometry" />
        </mxCell>
        <mxCell id="Hf0nUSn8OMHUZp1qof5B-23" value="" style="edgeStyle=orthogonalEdgeStyle;shape=connector;curved=0;rounded=1;orthogonalLoop=1;jettySize=auto;html=1;dashed=1;strokeColor=#b46504;align=center;verticalAlign=middle;fontFamily=Helvetica;fontSize=16;fontColor=default;fontStyle=0;labelBackgroundColor=none;endArrow=none;endFill=0;fillColor=#fad7ac;" parent="1" source="Hf0nUSn8OMHUZp1qof5B-20" target="Hf0nUSn8OMHUZp1qof5B-22" edge="1">
          <mxGeometry relative="1" as="geometry" />
        </mxCell>
        <mxCell id="Hf0nUSn8OMHUZp1qof5B-20" value="1646" style="ellipse;whiteSpace=wrap;html=1;aspect=fixed;fillColor=#fad7ac;strokeColor=#b46504;labelPosition=center;verticalLabelPosition=top;align=center;verticalAlign=bottom;fontStyle=0;labelBackgroundColor=none;fontSize=16;" parent="1" vertex="1">
          <mxGeometry x="-240" y="600" width="40" height="40" as="geometry" />
        </mxCell>
        <mxCell id="GIleygXYsajchvQRSn_2-19" value="" style="edgeStyle=orthogonalEdgeStyle;shape=connector;curved=0;rounded=1;orthogonalLoop=1;jettySize=auto;html=1;dashed=1;strokeColor=#b46504;align=center;verticalAlign=middle;fontFamily=Helvetica;fontSize=16;fontColor=default;fontStyle=0;labelBackgroundColor=none;endArrow=none;endFill=0;fillColor=#fad7ac;" parent="1" source="Hf0nUSn8OMHUZp1qof5B-22" target="GIleygXYsajchvQRSn_2-18" edge="1">
          <mxGeometry relative="1" as="geometry" />
        </mxCell>
        <mxCell id="Hf0nUSn8OMHUZp1qof5B-22" value="2099" style="ellipse;whiteSpace=wrap;html=1;aspect=fixed;fillColor=#fad7ac;strokeColor=#b46504;labelPosition=center;verticalLabelPosition=top;align=center;verticalAlign=bottom;fontStyle=0;labelBackgroundColor=none;fontSize=16;" parent="1" vertex="1">
          <mxGeometry x="-160" y="600" width="40" height="40" as="geometry" />
        </mxCell>
        <mxCell id="Hf0nUSn8OMHUZp1qof5B-24" value="Thiago" style="whiteSpace=wrap;html=1;fontSize=16;verticalAlign=middle;fillColor=#fad7ac;strokeColor=#b46504;fontStyle=0;labelBackgroundColor=none;" parent="1" vertex="1">
          <mxGeometry x="3159" y="600" width="120" height="40" as="geometry" />
        </mxCell>
        <mxCell id="GIleygXYsajchvQRSn_2-6" value="" style="edgeStyle=orthogonalEdgeStyle;rounded=1;orthogonalLoop=1;jettySize=auto;html=1;dashed=1;strokeColor=#ae4132;align=center;verticalAlign=middle;fontFamily=Helvetica;fontSize=16;fontColor=default;fontStyle=0;labelBackgroundColor=none;endArrow=none;endFill=0;curved=1;fillColor=#fad9d5;" parent="1" source="GIleygXYsajchvQRSn_2-1" target="GIleygXYsajchvQRSn_2-5" edge="1">
          <mxGeometry relative="1" as="geometry" />
        </mxCell>
        <mxCell id="GIleygXYsajchvQRSn_2-1" value="1858" style="ellipse;whiteSpace=wrap;html=1;aspect=fixed;fillColor=#fad9d5;strokeColor=#ae4132;labelPosition=center;verticalLabelPosition=top;align=center;verticalAlign=bottom;fontStyle=0;labelBackgroundColor=none;fontSize=16;" parent="1" vertex="1">
          <mxGeometry x="120" y="440" width="40" height="40" as="geometry" />
        </mxCell>
        <mxCell id="GIleygXYsajchvQRSn_2-3" value="João" style="whiteSpace=wrap;html=1;fontSize=16;verticalAlign=middle;fillColor=#fad9d5;strokeColor=#ae4132;fontStyle=0;labelBackgroundColor=none;" parent="1" vertex="1">
          <mxGeometry x="3159" y="440" width="120" height="40" as="geometry" />
        </mxCell>
        <mxCell id="GIleygXYsajchvQRSn_2-8" value="" style="edgeStyle=orthogonalEdgeStyle;rounded=1;orthogonalLoop=1;jettySize=auto;html=1;dashed=1;strokeColor=#ae4132;align=center;verticalAlign=middle;fontFamily=Helvetica;fontSize=16;fontColor=default;fontStyle=0;labelBackgroundColor=none;endArrow=none;endFill=0;curved=1;fillColor=#fad9d5;" parent="1" source="GIleygXYsajchvQRSn_2-5" target="GIleygXYsajchvQRSn_2-7" edge="1">
          <mxGeometry relative="1" as="geometry" />
        </mxCell>
        <mxCell id="GIleygXYsajchvQRSn_2-5" value="2012" style="ellipse;whiteSpace=wrap;html=1;aspect=fixed;fillColor=#fad9d5;strokeColor=#ae4132;labelPosition=center;verticalLabelPosition=top;align=center;verticalAlign=bottom;fontStyle=0;labelBackgroundColor=none;fontSize=16;" parent="1" vertex="1">
          <mxGeometry x="200" y="440" width="40" height="40" as="geometry" />
        </mxCell>
        <mxCell id="GIleygXYsajchvQRSn_2-10" value="" style="edgeStyle=orthogonalEdgeStyle;rounded=1;orthogonalLoop=1;jettySize=auto;html=1;dashed=1;strokeColor=#b46504;align=center;verticalAlign=middle;fontFamily=Helvetica;fontSize=16;fontColor=default;fontStyle=0;labelBackgroundColor=none;endArrow=none;endFill=0;curved=0;fillColor=#fad7ac;" parent="1" source="GIleygXYsajchvQRSn_2-7" target="GIleygXYsajchvQRSn_2-9" edge="1">
          <mxGeometry relative="1" as="geometry" />
        </mxCell>
        <mxCell id="GIleygXYsajchvQRSn_2-7" value="1645" style="ellipse;whiteSpace=wrap;html=1;aspect=fixed;fillColor=#fad9d5;strokeColor=#ae4132;labelPosition=center;verticalLabelPosition=top;align=center;verticalAlign=bottom;fontStyle=0;labelBackgroundColor=none;fontSize=16;" parent="1" vertex="1">
          <mxGeometry x="280" y="440" width="40" height="40" as="geometry" />
        </mxCell>
        <mxCell id="GIleygXYsajchvQRSn_2-26" value="" style="edgeStyle=orthogonalEdgeStyle;shape=connector;curved=1;rounded=1;orthogonalLoop=1;jettySize=auto;html=1;dashed=1;strokeColor=#ae4132;align=center;verticalAlign=middle;fontFamily=Helvetica;fontSize=16;fontColor=default;fontStyle=0;labelBackgroundColor=none;endArrow=none;endFill=0;fillColor=#fad9d5;" parent="1" source="GIleygXYsajchvQRSn_2-9" target="GIleygXYsajchvQRSn_2-7" edge="1">
          <mxGeometry relative="1" as="geometry">
            <Array as="points">
              <mxPoint x="340" y="460" />
              <mxPoint x="340" y="460" />
            </Array>
          </mxGeometry>
        </mxCell>
        <mxCell id="LOD-dvkLbclwCgtQcdtd-32" style="edgeStyle=orthogonalEdgeStyle;shape=connector;curved=1;rounded=1;orthogonalLoop=1;jettySize=auto;html=1;entryX=0;entryY=0.5;entryDx=0;entryDy=0;dashed=1;strokeColor=#ae4132;align=center;verticalAlign=middle;fontFamily=Helvetica;fontSize=16;fontColor=default;fontStyle=0;labelBackgroundColor=none;endArrow=none;endFill=0;fillColor=#fad9d5;" edge="1" parent="1" source="GIleygXYsajchvQRSn_2-9" target="LOD-dvkLbclwCgtQcdtd-31">
          <mxGeometry relative="1" as="geometry" />
        </mxCell>
        <mxCell id="GIleygXYsajchvQRSn_2-9" value="1600" style="ellipse;whiteSpace=wrap;html=1;aspect=fixed;fillColor=#fad9d5;strokeColor=#ae4132;labelPosition=center;verticalLabelPosition=top;align=center;verticalAlign=bottom;fontStyle=0;labelBackgroundColor=none;fontSize=16;" parent="1" vertex="1">
          <mxGeometry x="360" y="440" width="40" height="40" as="geometry" />
        </mxCell>
        <mxCell id="GIleygXYsajchvQRSn_2-18" value="2115" style="ellipse;whiteSpace=wrap;html=1;aspect=fixed;fillColor=#fad7ac;strokeColor=#b46504;labelPosition=center;verticalLabelPosition=top;align=center;verticalAlign=bottom;fontStyle=0;labelBackgroundColor=none;fontSize=16;" parent="1" vertex="1">
          <mxGeometry x="-80" y="600" width="40" height="40" as="geometry" />
        </mxCell>
        <mxCell id="GIleygXYsajchvQRSn_2-35" style="edgeStyle=orthogonalEdgeStyle;shape=connector;curved=1;rounded=1;orthogonalLoop=1;jettySize=auto;html=1;entryX=0;entryY=0.5;entryDx=0;entryDy=0;dashed=1;strokeColor=#b46504;align=center;verticalAlign=middle;fontFamily=Helvetica;fontSize=16;fontColor=default;fontStyle=0;labelBackgroundColor=none;endArrow=none;endFill=0;fillColor=#fad7ac;exitX=1;exitY=0.5;exitDx=0;exitDy=0;" parent="1" source="GIleygXYsajchvQRSn_2-18" target="Hf0nUSn8OMHUZp1qof5B-3" edge="1">
          <mxGeometry relative="1" as="geometry">
            <mxPoint x="-40.00004725903523" y="620.0434782608695" as="sourcePoint" />
          </mxGeometry>
        </mxCell>
        <mxCell id="GIleygXYsajchvQRSn_2-46" style="edgeStyle=orthogonalEdgeStyle;shape=connector;curved=1;rounded=1;orthogonalLoop=1;jettySize=auto;html=1;dashed=1;strokeColor=#b46504;align=center;verticalAlign=middle;fontFamily=Helvetica;fontSize=16;fontColor=default;fontStyle=0;labelBackgroundColor=none;endArrow=none;endFill=0;fillColor=#fad7ac;entryX=0;entryY=0.5;entryDx=0;entryDy=0;exitX=1;exitY=0.5;exitDx=0;exitDy=0;" parent="1" source="GIleygXYsajchvQRSn_2-18" target="GIleygXYsajchvQRSn_2-47" edge="1">
          <mxGeometry relative="1" as="geometry">
            <mxPoint x="90" y="620" as="targetPoint" />
            <mxPoint x="-40" y="620" as="sourcePoint" />
          </mxGeometry>
        </mxCell>
        <mxCell id="GIleygXYsajchvQRSn_2-29" value="Tharcysio" style="whiteSpace=wrap;html=1;fontSize=16;verticalAlign=middle;fillColor=#d0cee2;strokeColor=#56517e;fontStyle=0;labelBackgroundColor=none;" parent="1" vertex="1">
          <mxGeometry x="3159" y="200" width="120" height="40" as="geometry" />
        </mxCell>
        <mxCell id="GIleygXYsajchvQRSn_2-41" value="" style="edgeStyle=orthogonalEdgeStyle;shape=connector;curved=1;rounded=1;orthogonalLoop=1;jettySize=auto;html=1;dashed=1;strokeColor=#ae4132;align=center;verticalAlign=middle;fontFamily=Helvetica;fontSize=16;fontColor=default;fontStyle=0;labelBackgroundColor=none;endArrow=none;endFill=0;fillColor=#fad9d5;" parent="1" source="GIleygXYsajchvQRSn_2-38" target="GIleygXYsajchvQRSn_2-40" edge="1">
          <mxGeometry relative="1" as="geometry" />
        </mxCell>
        <mxCell id="GIleygXYsajchvQRSn_2-38" value="1909" style="ellipse;whiteSpace=wrap;html=1;aspect=fixed;fillColor=#fad9d5;strokeColor=#ae4132;labelPosition=center;verticalLabelPosition=top;align=center;verticalAlign=bottom;fontStyle=0;labelBackgroundColor=none;fontSize=16;" parent="1" vertex="1">
          <mxGeometry x="1720" y="440" width="40" height="40" as="geometry" />
        </mxCell>
        <mxCell id="GIleygXYsajchvQRSn_2-43" value="" style="edgeStyle=orthogonalEdgeStyle;shape=connector;curved=1;rounded=1;orthogonalLoop=1;jettySize=auto;html=1;dashed=1;strokeColor=#ae4132;align=center;verticalAlign=middle;fontFamily=Helvetica;fontSize=16;fontColor=default;fontStyle=0;labelBackgroundColor=none;endArrow=none;endFill=0;fillColor=#fad9d5;" parent="1" source="GIleygXYsajchvQRSn_2-40" target="GIleygXYsajchvQRSn_2-42" edge="1">
          <mxGeometry relative="1" as="geometry" />
        </mxCell>
        <mxCell id="GIleygXYsajchvQRSn_2-40" value="1283" style="ellipse;whiteSpace=wrap;html=1;aspect=fixed;fillColor=#fad9d5;strokeColor=#ae4132;labelPosition=center;verticalLabelPosition=top;align=center;verticalAlign=bottom;fontStyle=0;labelBackgroundColor=none;fontSize=16;" parent="1" vertex="1">
          <mxGeometry x="1800" y="440" width="40" height="40" as="geometry" />
        </mxCell>
        <mxCell id="GIleygXYsajchvQRSn_2-45" value="" style="edgeStyle=orthogonalEdgeStyle;shape=connector;curved=1;rounded=1;orthogonalLoop=1;jettySize=auto;html=1;dashed=1;strokeColor=#ae4132;align=center;verticalAlign=middle;fontFamily=Helvetica;fontSize=16;fontColor=default;fontStyle=0;labelBackgroundColor=none;endArrow=none;endFill=0;fillColor=#fad9d5;" parent="1" source="GIleygXYsajchvQRSn_2-42" target="GIleygXYsajchvQRSn_2-44" edge="1">
          <mxGeometry relative="1" as="geometry" />
        </mxCell>
        <mxCell id="GIleygXYsajchvQRSn_2-42" value="1928" style="ellipse;whiteSpace=wrap;html=1;aspect=fixed;fillColor=#fad9d5;strokeColor=#ae4132;labelPosition=center;verticalLabelPosition=top;align=center;verticalAlign=bottom;fontStyle=0;labelBackgroundColor=none;fontSize=16;" parent="1" vertex="1">
          <mxGeometry x="1920" y="440" width="40" height="40" as="geometry" />
        </mxCell>
        <mxCell id="xvnGSztWDjFvMEGjqHsq-4" style="edgeStyle=orthogonalEdgeStyle;shape=connector;curved=1;rounded=1;orthogonalLoop=1;jettySize=auto;html=1;entryX=0;entryY=0.5;entryDx=0;entryDy=0;dashed=1;strokeColor=#ae4132;align=center;verticalAlign=middle;fontFamily=Helvetica;fontSize=16;fontColor=default;fontStyle=0;labelBackgroundColor=none;endArrow=none;endFill=0;fillColor=#fad9d5;" parent="1" source="GIleygXYsajchvQRSn_2-44" target="xvnGSztWDjFvMEGjqHsq-2" edge="1">
          <mxGeometry relative="1" as="geometry" />
        </mxCell>
        <mxCell id="xvnGSztWDjFvMEGjqHsq-18" style="edgeStyle=orthogonalEdgeStyle;shape=connector;curved=1;rounded=1;orthogonalLoop=1;jettySize=auto;html=1;entryX=0;entryY=0.5;entryDx=0;entryDy=0;dashed=1;strokeColor=#ae4132;align=center;verticalAlign=middle;fontFamily=Helvetica;fontSize=16;fontColor=default;fontStyle=0;labelBackgroundColor=none;endArrow=none;endFill=0;fillColor=#fad9d5;" parent="1" source="GIleygXYsajchvQRSn_2-44" target="xvnGSztWDjFvMEGjqHsq-16" edge="1">
          <mxGeometry relative="1" as="geometry" />
        </mxCell>
        <mxCell id="GIleygXYsajchvQRSn_2-44" value="1861" style="ellipse;whiteSpace=wrap;html=1;aspect=fixed;fillColor=#fad9d5;strokeColor=#ae4132;labelPosition=center;verticalLabelPosition=top;align=center;verticalAlign=bottom;fontStyle=0;labelBackgroundColor=none;fontSize=16;" parent="1" vertex="1">
          <mxGeometry x="2081" y="440" width="40" height="40" as="geometry" />
        </mxCell>
        <mxCell id="GIleygXYsajchvQRSn_2-49" value="" style="edgeStyle=orthogonalEdgeStyle;shape=connector;curved=1;rounded=1;orthogonalLoop=1;jettySize=auto;html=1;dashed=1;strokeColor=#b46504;align=center;verticalAlign=middle;fontFamily=Helvetica;fontSize=16;fontColor=default;fontStyle=0;labelBackgroundColor=none;endArrow=none;endFill=0;fillColor=#fad7ac;" parent="1" source="GIleygXYsajchvQRSn_2-47" target="GIleygXYsajchvQRSn_2-48" edge="1">
          <mxGeometry relative="1" as="geometry" />
        </mxCell>
        <mxCell id="GIleygXYsajchvQRSn_2-47" value="2135" style="ellipse;whiteSpace=wrap;html=1;aspect=fixed;fillColor=#fad7ac;strokeColor=#b46504;labelPosition=center;verticalLabelPosition=top;align=center;verticalAlign=bottom;fontStyle=0;labelBackgroundColor=none;fontSize=16;" parent="1" vertex="1">
          <mxGeometry x="40" y="600" width="40" height="40" as="geometry" />
        </mxCell>
        <mxCell id="GIleygXYsajchvQRSn_2-51" value="" style="edgeStyle=orthogonalEdgeStyle;shape=connector;curved=1;rounded=1;orthogonalLoop=1;jettySize=auto;html=1;dashed=1;strokeColor=#b46504;align=center;verticalAlign=middle;fontFamily=Helvetica;fontSize=16;fontColor=default;fontStyle=0;labelBackgroundColor=none;endArrow=none;endFill=0;fillColor=#fad7ac;" parent="1" source="GIleygXYsajchvQRSn_2-48" target="GIleygXYsajchvQRSn_2-50" edge="1">
          <mxGeometry relative="1" as="geometry" />
        </mxCell>
        <mxCell id="GIleygXYsajchvQRSn_2-48" value="1579" style="ellipse;whiteSpace=wrap;html=1;aspect=fixed;fillColor=#fad7ac;strokeColor=#b46504;labelPosition=center;verticalLabelPosition=top;align=center;verticalAlign=bottom;fontStyle=0;labelBackgroundColor=none;fontSize=16;" parent="1" vertex="1">
          <mxGeometry x="120" y="600" width="40" height="40" as="geometry" />
        </mxCell>
        <mxCell id="GIleygXYsajchvQRSn_2-53" value="" style="edgeStyle=orthogonalEdgeStyle;shape=connector;curved=1;rounded=1;orthogonalLoop=1;jettySize=auto;html=1;dashed=1;strokeColor=#b46504;align=center;verticalAlign=middle;fontFamily=Helvetica;fontSize=16;fontColor=default;fontStyle=0;labelBackgroundColor=none;endArrow=none;endFill=0;fillColor=#fad7ac;" parent="1" source="GIleygXYsajchvQRSn_2-50" target="GIleygXYsajchvQRSn_2-52" edge="1">
          <mxGeometry relative="1" as="geometry" />
        </mxCell>
        <mxCell id="GIleygXYsajchvQRSn_2-50" value="2204" style="ellipse;whiteSpace=wrap;html=1;aspect=fixed;fillColor=#fad7ac;strokeColor=#b46504;labelPosition=center;verticalLabelPosition=top;align=center;verticalAlign=bottom;fontStyle=0;labelBackgroundColor=none;fontSize=16;" parent="1" vertex="1">
          <mxGeometry x="200" y="600" width="40" height="40" as="geometry" />
        </mxCell>
        <mxCell id="GIleygXYsajchvQRSn_2-60" value="" style="edgeStyle=orthogonalEdgeStyle;shape=connector;curved=1;rounded=1;orthogonalLoop=1;jettySize=auto;html=1;dashed=1;strokeColor=#b46504;align=center;verticalAlign=middle;fontFamily=Helvetica;fontSize=16;fontColor=default;fontStyle=0;labelBackgroundColor=none;endArrow=none;endFill=0;fillColor=#fad7ac;" parent="1" source="GIleygXYsajchvQRSn_2-52" target="GIleygXYsajchvQRSn_2-59" edge="1">
          <mxGeometry relative="1" as="geometry" />
        </mxCell>
        <mxCell id="GIleygXYsajchvQRSn_2-52" value="1629" style="ellipse;whiteSpace=wrap;html=1;aspect=fixed;fillColor=#fad7ac;strokeColor=#b46504;labelPosition=center;verticalLabelPosition=top;align=center;verticalAlign=bottom;fontStyle=0;labelBackgroundColor=none;fontSize=16;" parent="1" vertex="1">
          <mxGeometry x="280" y="600" width="40" height="40" as="geometry" />
        </mxCell>
        <mxCell id="GIleygXYsajchvQRSn_2-55" value="&lt;font style=&quot;font-size: 20px;&quot;&gt;13/08&lt;/font&gt;" style="text;html=1;align=center;verticalAlign=middle;resizable=0;points=[];autosize=1;strokeColor=none;fillColor=none;fontFamily=Helvetica;fontSize=16;fontColor=default;fontStyle=0;labelBackgroundColor=none;" parent="1" vertex="1">
          <mxGeometry x="-495" y="330" width="70" height="40" as="geometry" />
        </mxCell>
        <mxCell id="GIleygXYsajchvQRSn_2-56" value="&lt;font style=&quot;font-size: 20px;&quot;&gt;21&lt;/font&gt;&lt;span style=&quot;font-size: 20px; background-color: transparent; color: light-dark(rgb(0, 0, 0), rgb(255, 255, 255));&quot;&gt;/08&lt;/span&gt;" style="text;html=1;align=center;verticalAlign=middle;resizable=0;points=[];autosize=1;strokeColor=none;fillColor=none;fontFamily=Helvetica;fontSize=16;fontColor=default;fontStyle=0;labelBackgroundColor=none;" parent="1" vertex="1">
          <mxGeometry x="25" y="320" width="70" height="40" as="geometry" />
        </mxCell>
        <mxCell id="GIleygXYsajchvQRSn_2-57" value="&lt;span style=&quot;font-size: 20px;&quot;&gt;03/09&lt;/span&gt;" style="text;html=1;align=center;verticalAlign=middle;resizable=0;points=[];autosize=1;strokeColor=none;fillColor=none;fontFamily=Helvetica;fontSize=16;fontColor=default;fontStyle=0;labelBackgroundColor=none;" parent="1" vertex="1">
          <mxGeometry x="945" y="320" width="70" height="40" as="geometry" />
        </mxCell>
        <mxCell id="LOD-dvkLbclwCgtQcdtd-48" style="edgeStyle=orthogonalEdgeStyle;shape=connector;curved=1;rounded=1;orthogonalLoop=1;jettySize=auto;html=1;entryX=0.5;entryY=0;entryDx=0;entryDy=0;dashed=1;strokeColor=#ae4132;align=center;verticalAlign=middle;fontFamily=Helvetica;fontSize=16;fontColor=default;fontStyle=0;labelBackgroundColor=none;endArrow=none;endFill=0;fillColor=#fad9d5;" edge="1" parent="1" source="GIleygXYsajchvQRSn_2-58" target="LOD-dvkLbclwCgtQcdtd-46">
          <mxGeometry relative="1" as="geometry" />
        </mxCell>
        <mxCell id="GIleygXYsajchvQRSn_2-58" value="&lt;font style=&quot;font-size: 20px;&quot;&gt;03/09&lt;/font&gt;" style="text;html=1;align=center;verticalAlign=middle;resizable=0;points=[];autosize=1;strokeColor=none;fillColor=none;fontFamily=Helvetica;fontSize=16;fontColor=default;fontStyle=0;labelBackgroundColor=none;" parent="1" vertex="1">
          <mxGeometry x="1425" y="320" width="70" height="40" as="geometry" />
        </mxCell>
        <mxCell id="GIleygXYsajchvQRSn_2-62" value="" style="edgeStyle=orthogonalEdgeStyle;shape=connector;curved=1;rounded=1;orthogonalLoop=1;jettySize=auto;html=1;dashed=1;strokeColor=#b46504;align=center;verticalAlign=middle;fontFamily=Helvetica;fontSize=16;fontColor=default;fontStyle=0;labelBackgroundColor=none;endArrow=none;endFill=0;fillColor=#fad7ac;" parent="1" source="GIleygXYsajchvQRSn_2-59" target="GIleygXYsajchvQRSn_2-61" edge="1">
          <mxGeometry relative="1" as="geometry" />
        </mxCell>
        <mxCell id="GIleygXYsajchvQRSn_2-59" value="1877" style="ellipse;whiteSpace=wrap;html=1;aspect=fixed;fillColor=#fad7ac;strokeColor=#b46504;labelPosition=center;verticalLabelPosition=top;align=center;verticalAlign=bottom;fontStyle=0;labelBackgroundColor=none;fontSize=16;" parent="1" vertex="1">
          <mxGeometry x="360" y="600" width="40" height="40" as="geometry" />
        </mxCell>
        <mxCell id="GIleygXYsajchvQRSn_2-64" value="" style="edgeStyle=orthogonalEdgeStyle;shape=connector;curved=1;rounded=1;orthogonalLoop=1;jettySize=auto;html=1;dashed=1;strokeColor=#b46504;align=center;verticalAlign=middle;fontFamily=Helvetica;fontSize=16;fontColor=default;fontStyle=0;labelBackgroundColor=none;endArrow=none;endFill=0;fillColor=#fad7ac;" parent="1" source="GIleygXYsajchvQRSn_2-61" target="GIleygXYsajchvQRSn_2-63" edge="1">
          <mxGeometry relative="1" as="geometry" />
        </mxCell>
        <mxCell id="GIleygXYsajchvQRSn_2-61" value="2202" style="ellipse;whiteSpace=wrap;html=1;aspect=fixed;fillColor=#fad7ac;strokeColor=#b46504;labelPosition=center;verticalLabelPosition=top;align=center;verticalAlign=bottom;fontStyle=0;labelBackgroundColor=none;fontSize=16;" parent="1" vertex="1">
          <mxGeometry x="440" y="600" width="40" height="40" as="geometry" />
        </mxCell>
        <mxCell id="GIleygXYsajchvQRSn_2-63" value="2225" style="ellipse;whiteSpace=wrap;html=1;aspect=fixed;fillColor=#fad7ac;strokeColor=#b46504;labelPosition=center;verticalLabelPosition=top;align=center;verticalAlign=bottom;fontStyle=0;labelBackgroundColor=none;fontSize=16;" parent="1" vertex="1">
          <mxGeometry x="520" y="600" width="40" height="40" as="geometry" />
        </mxCell>
        <mxCell id="GIleygXYsajchvQRSn_2-71" style="edgeStyle=orthogonalEdgeStyle;shape=connector;curved=0;rounded=1;orthogonalLoop=1;jettySize=auto;html=1;entryX=0;entryY=0.5;entryDx=0;entryDy=0;dashed=1;strokeColor=#10739e;align=center;verticalAlign=middle;fontFamily=Helvetica;fontSize=16;fontColor=default;fontStyle=0;labelBackgroundColor=none;endArrow=none;endFill=0;fillColor=#b1ddf0;" parent="1" source="X2XL2pnRzJB7zU3urfAD-27" target="Hf0nUSn8OMHUZp1qof5B-13" edge="1">
          <mxGeometry relative="1" as="geometry" />
        </mxCell>
        <mxCell id="X2XL2pnRzJB7zU3urfAD-34" style="edgeStyle=orthogonalEdgeStyle;shape=connector;rounded=1;orthogonalLoop=1;jettySize=auto;html=1;entryX=0;entryY=0.5;entryDx=0;entryDy=0;dashed=1;strokeColor=#ae4132;align=center;verticalAlign=middle;fontFamily=Helvetica;fontSize=16;fontColor=default;fontStyle=0;labelBackgroundColor=none;endArrow=none;endFill=0;fillColor=#fad9d5;curved=1;" parent="1" source="GIleygXYsajchvQRSn_2-66" target="X2XL2pnRzJB7zU3urfAD-8" edge="1">
          <mxGeometry relative="1" as="geometry" />
        </mxCell>
        <mxCell id="xvnGSztWDjFvMEGjqHsq-14" style="edgeStyle=orthogonalEdgeStyle;shape=connector;curved=0;rounded=1;orthogonalLoop=1;jettySize=auto;html=1;entryX=0;entryY=0.5;entryDx=0;entryDy=0;dashed=1;strokeColor=#10739e;align=center;verticalAlign=middle;fontFamily=Helvetica;fontSize=16;fontColor=default;fontStyle=0;labelBackgroundColor=none;endArrow=none;endFill=0;fillColor=#b1ddf0;" parent="1" source="GIleygXYsajchvQRSn_2-66" target="X2XL2pnRzJB7zU3urfAD-27" edge="1">
          <mxGeometry relative="1" as="geometry" />
        </mxCell>
        <mxCell id="GIleygXYsajchvQRSn_2-66" value="v2.4.0" style="ellipse;whiteSpace=wrap;html=1;aspect=fixed;fillColor=#b1ddf0;strokeColor=#10739e;labelPosition=center;verticalLabelPosition=top;align=center;verticalAlign=bottom;fontStyle=0;labelBackgroundColor=none;fontSize=16;" parent="1" vertex="1">
          <mxGeometry x="2640" y="280" width="40" height="40" as="geometry" />
        </mxCell>
        <mxCell id="GIleygXYsajchvQRSn_2-70" value="Lançamento" style="whiteSpace=wrap;html=1;fontSize=16;verticalAlign=middle;fillColor=#f0a30a;strokeColor=#BD7000;fontStyle=0;labelBackgroundColor=none;fontColor=#000000;" parent="1" vertex="1">
          <mxGeometry x="3159" y="360" width="120" height="40" as="geometry" />
        </mxCell>
        <mxCell id="GIleygXYsajchvQRSn_2-78" style="edgeStyle=orthogonalEdgeStyle;shape=connector;curved=1;rounded=1;orthogonalLoop=1;jettySize=auto;html=1;entryX=0;entryY=0.5;entryDx=0;entryDy=0;dashed=1;strokeColor=#b46504;align=center;verticalAlign=middle;fontFamily=Helvetica;fontSize=16;fontColor=default;fontStyle=0;labelBackgroundColor=none;endArrow=none;endFill=0;fillColor=#fad7ac;" parent="1" source="GIleygXYsajchvQRSn_2-75" target="GIleygXYsajchvQRSn_2-66" edge="1">
          <mxGeometry relative="1" as="geometry" />
        </mxCell>
        <mxCell id="GIleygXYsajchvQRSn_2-75" value="" style="ellipse;whiteSpace=wrap;html=1;aspect=fixed;fillColor=#f0a30a;strokeColor=#BD7000;labelPosition=center;verticalLabelPosition=top;align=center;verticalAlign=bottom;fontStyle=0;labelBackgroundColor=none;fontSize=16;fontColor=#000000;" parent="1" vertex="1">
          <mxGeometry x="2520" y="360" width="40" height="40" as="geometry" />
        </mxCell>
        <mxCell id="GIleygXYsajchvQRSn_2-81" value="v2.3.0-joao" style="text;html=1;align=center;verticalAlign=middle;resizable=0;points=[];autosize=1;strokeColor=none;fillColor=none;fontFamily=Helvetica;fontSize=16;fontColor=default;fontStyle=0;labelBackgroundColor=none;" parent="1" vertex="1">
          <mxGeometry x="330" y="480" width="100" height="30" as="geometry" />
        </mxCell>
        <mxCell id="GIleygXYsajchvQRSn_2-82" value="v2.4.0-beta.0.joao" style="text;html=1;align=center;verticalAlign=middle;resizable=0;points=[];autosize=1;strokeColor=none;fillColor=none;fontFamily=Helvetica;fontSize=16;fontColor=default;fontStyle=0;labelBackgroundColor=none;" parent="1" vertex="1">
          <mxGeometry x="1665" y="480" width="150" height="30" as="geometry" />
        </mxCell>
        <mxCell id="GIleygXYsajchvQRSn_2-83" value="v2.4.0-beta.1&lt;span style=&quot;background-color: transparent; color: light-dark(rgb(0, 0, 0), rgb(255, 255, 255));&quot;&gt;.joao&lt;/span&gt;" style="text;html=1;align=center;verticalAlign=middle;resizable=0;points=[];autosize=1;strokeColor=none;fillColor=none;fontFamily=Helvetica;fontSize=16;fontColor=default;fontStyle=0;labelBackgroundColor=none;" parent="1" vertex="1">
          <mxGeometry x="1865" y="480" width="150" height="30" as="geometry" />
        </mxCell>
        <mxCell id="GIleygXYsajchvQRSn_2-84" value="v2.4.0-beta.2&lt;span style=&quot;background-color: transparent; color: light-dark(rgb(0, 0, 0), rgb(255, 255, 255));&quot;&gt;.joao&lt;/span&gt;" style="text;html=1;align=center;verticalAlign=middle;resizable=0;points=[];autosize=1;strokeColor=none;fillColor=none;fontFamily=Helvetica;fontSize=16;fontColor=default;fontStyle=0;labelBackgroundColor=none;" parent="1" vertex="1">
          <mxGeometry x="2026" y="480" width="150" height="30" as="geometry" />
        </mxCell>
        <mxCell id="X2XL2pnRzJB7zU3urfAD-21" style="edgeStyle=orthogonalEdgeStyle;shape=connector;curved=1;rounded=1;orthogonalLoop=1;jettySize=auto;html=1;entryX=0;entryY=0.5;entryDx=0;entryDy=0;dashed=1;strokeColor=#b46504;align=center;verticalAlign=middle;fontFamily=Helvetica;fontSize=16;fontColor=default;fontStyle=0;labelBackgroundColor=none;endArrow=none;endFill=0;fillColor=#fad7ac;" parent="1" edge="1">
          <mxGeometry relative="1" as="geometry">
            <mxPoint x="2760" y="540" as="sourcePoint" />
          </mxGeometry>
        </mxCell>
        <mxCell id="X2XL2pnRzJB7zU3urfAD-23" style="edgeStyle=orthogonalEdgeStyle;shape=connector;curved=1;rounded=1;orthogonalLoop=1;jettySize=auto;html=1;entryX=0;entryY=0.5;entryDx=0;entryDy=0;dashed=1;strokeColor=#ae4132;align=center;verticalAlign=middle;fontFamily=Helvetica;fontSize=16;fontColor=default;fontStyle=0;labelBackgroundColor=none;endArrow=none;endFill=0;fillColor=#fad9d5;" parent="1" source="X2XL2pnRzJB7zU3urfAD-6" target="X2XL2pnRzJB7zU3urfAD-22" edge="1">
          <mxGeometry relative="1" as="geometry" />
        </mxCell>
        <mxCell id="X2XL2pnRzJB7zU3urfAD-6" value="2386" style="ellipse;whiteSpace=wrap;html=1;aspect=fixed;fillColor=#fad9d5;strokeColor=#ae4132;labelPosition=center;verticalLabelPosition=top;align=center;verticalAlign=bottom;fontStyle=0;labelBackgroundColor=none;fontSize=16;" parent="1" vertex="1">
          <mxGeometry x="2840" y="440" width="40" height="40" as="geometry" />
        </mxCell>
        <mxCell id="xvnGSztWDjFvMEGjqHsq-9" style="edgeStyle=orthogonalEdgeStyle;shape=connector;curved=1;rounded=1;orthogonalLoop=1;jettySize=auto;html=1;entryX=0;entryY=0.5;entryDx=0;entryDy=0;dashed=1;strokeColor=#ae4132;align=center;verticalAlign=middle;fontFamily=Helvetica;fontSize=16;fontColor=default;fontStyle=0;labelBackgroundColor=none;endArrow=none;endFill=0;fillColor=#fad9d5;" parent="1" source="X2XL2pnRzJB7zU3urfAD-8" target="X2XL2pnRzJB7zU3urfAD-6" edge="1">
          <mxGeometry relative="1" as="geometry" />
        </mxCell>
        <mxCell id="X2XL2pnRzJB7zU3urfAD-8" value="2373" style="ellipse;whiteSpace=wrap;html=1;aspect=fixed;fillColor=#fad9d5;strokeColor=#ae4132;labelPosition=center;verticalLabelPosition=top;align=center;verticalAlign=bottom;fontStyle=0;labelBackgroundColor=none;fontSize=16;fontFamily=Helvetica;fontColor=default;" parent="1" vertex="1">
          <mxGeometry x="2760" y="440" width="40" height="40" as="geometry" />
        </mxCell>
        <mxCell id="X2XL2pnRzJB7zU3urfAD-1" value="&lt;font style=&quot;font-size: 20px;&quot;&gt;18/09&lt;/font&gt;" style="text;html=1;align=center;verticalAlign=middle;resizable=0;points=[];autosize=1;strokeColor=none;fillColor=none;fontFamily=Helvetica;fontSize=16;fontColor=default;fontStyle=0;labelBackgroundColor=none;" parent="1" vertex="1">
          <mxGeometry x="2625" y="320" width="70" height="40" as="geometry" />
        </mxCell>
        <mxCell id="X2XL2pnRzJB7zU3urfAD-29" style="edgeStyle=orthogonalEdgeStyle;shape=connector;curved=1;rounded=1;orthogonalLoop=1;jettySize=auto;html=1;dashed=1;strokeColor=#BD7000;align=center;verticalAlign=middle;fontFamily=Helvetica;fontSize=16;fontColor=default;fontStyle=0;labelBackgroundColor=none;endArrow=none;endFill=0;fillColor=#f0a30a;entryX=0;entryY=0.5;entryDx=0;entryDy=0;" parent="1" source="X2XL2pnRzJB7zU3urfAD-22" target="X2XL2pnRzJB7zU3urfAD-27" edge="1">
          <mxGeometry relative="1" as="geometry">
            <mxPoint x="3370" y="360" as="targetPoint" />
          </mxGeometry>
        </mxCell>
        <mxCell id="X2XL2pnRzJB7zU3urfAD-22" value="" style="ellipse;whiteSpace=wrap;html=1;aspect=fixed;fillColor=#f0a30a;strokeColor=#BD7000;labelPosition=center;verticalLabelPosition=top;align=center;verticalAlign=bottom;fontStyle=0;labelBackgroundColor=none;fontSize=16;fontColor=#000000;" parent="1" vertex="1">
          <mxGeometry x="2960" y="360" width="40" height="40" as="geometry" />
        </mxCell>
        <mxCell id="X2XL2pnRzJB7zU3urfAD-26" value="v2.4.1-beta" style="text;html=1;align=center;verticalAlign=middle;resizable=0;points=[];autosize=1;strokeColor=none;fillColor=none;fontFamily=Helvetica;fontSize=16;fontColor=default;fontStyle=0;labelBackgroundColor=none;" parent="1" vertex="1">
          <mxGeometry x="2930" y="330" width="100" height="30" as="geometry" />
        </mxCell>
        <mxCell id="X2XL2pnRzJB7zU3urfAD-27" value="v2.4.1" style="ellipse;whiteSpace=wrap;html=1;aspect=fixed;fillColor=#b1ddf0;strokeColor=#10739e;labelPosition=center;verticalLabelPosition=top;align=center;verticalAlign=bottom;fontStyle=0;labelBackgroundColor=none;fontSize=16;" parent="1" vertex="1">
          <mxGeometry x="3080" y="280" width="40" height="40" as="geometry" />
        </mxCell>
        <mxCell id="xvnGSztWDjFvMEGjqHsq-11" style="edgeStyle=orthogonalEdgeStyle;shape=connector;curved=1;rounded=1;orthogonalLoop=1;jettySize=auto;html=1;entryX=0;entryY=0.5;entryDx=0;entryDy=0;dashed=1;strokeColor=#b46504;align=center;verticalAlign=middle;fontFamily=Helvetica;fontSize=16;fontColor=default;fontStyle=0;labelBackgroundColor=none;endArrow=none;endFill=0;fillColor=#fad7ac;" parent="1" source="X2XL2pnRzJB7zU3urfAD-32" target="X2XL2pnRzJB7zU3urfAD-22" edge="1">
          <mxGeometry relative="1" as="geometry" />
        </mxCell>
        <mxCell id="X2XL2pnRzJB7zU3urfAD-32" value="2264" style="ellipse;whiteSpace=wrap;html=1;aspect=fixed;fillColor=#fad7ac;strokeColor=#b46504;labelPosition=center;verticalLabelPosition=top;align=center;verticalAlign=bottom;fontStyle=0;labelBackgroundColor=none;fontSize=16;" parent="1" vertex="1">
          <mxGeometry x="2880" y="600" width="40" height="40" as="geometry" />
        </mxCell>
        <mxCell id="xvnGSztWDjFvMEGjqHsq-1" value="&lt;font style=&quot;font-size: 20px;&quot;&gt;01/10&lt;/font&gt;" style="text;html=1;align=center;verticalAlign=middle;resizable=0;points=[];autosize=1;strokeColor=none;fillColor=none;fontFamily=Helvetica;fontSize=16;fontColor=default;fontStyle=0;labelBackgroundColor=none;" parent="1" vertex="1">
          <mxGeometry x="3065" y="320" width="70" height="40" as="geometry" />
        </mxCell>
        <mxCell id="xvnGSztWDjFvMEGjqHsq-6" value="" style="edgeStyle=orthogonalEdgeStyle;shape=connector;curved=1;rounded=1;orthogonalLoop=1;jettySize=auto;html=1;dashed=1;strokeColor=#ae4132;align=center;verticalAlign=middle;fontFamily=Helvetica;fontSize=16;fontColor=default;fontStyle=0;labelBackgroundColor=none;endArrow=none;endFill=0;fillColor=#fad9d5;" parent="1" source="xvnGSztWDjFvMEGjqHsq-2" target="xvnGSztWDjFvMEGjqHsq-5" edge="1">
          <mxGeometry relative="1" as="geometry" />
        </mxCell>
        <mxCell id="xvnGSztWDjFvMEGjqHsq-2" value="2109" style="ellipse;whiteSpace=wrap;html=1;aspect=fixed;fillColor=#fad9d5;strokeColor=#ae4132;labelPosition=center;verticalLabelPosition=top;align=center;verticalAlign=bottom;fontStyle=0;labelBackgroundColor=none;fontSize=16;" parent="1" vertex="1">
          <mxGeometry x="2280" y="440" width="40" height="40" as="geometry" />
        </mxCell>
        <mxCell id="xvnGSztWDjFvMEGjqHsq-7" style="edgeStyle=orthogonalEdgeStyle;shape=connector;curved=1;rounded=1;orthogonalLoop=1;jettySize=auto;html=1;entryX=0;entryY=0.5;entryDx=0;entryDy=0;dashed=1;strokeColor=#ae4132;align=center;verticalAlign=middle;fontFamily=Helvetica;fontSize=16;fontColor=default;fontStyle=0;labelBackgroundColor=none;endArrow=none;endFill=0;fillColor=#fad9d5;" parent="1" source="xvnGSztWDjFvMEGjqHsq-5" target="GIleygXYsajchvQRSn_2-75" edge="1">
          <mxGeometry relative="1" as="geometry" />
        </mxCell>
        <mxCell id="xvnGSztWDjFvMEGjqHsq-5" value="2014" style="ellipse;whiteSpace=wrap;html=1;aspect=fixed;fillColor=#fad9d5;strokeColor=#ae4132;labelPosition=center;verticalLabelPosition=top;align=center;verticalAlign=bottom;fontStyle=0;labelBackgroundColor=none;fontSize=16;" parent="1" vertex="1">
          <mxGeometry x="2360" y="440" width="40" height="40" as="geometry" />
        </mxCell>
        <mxCell id="xvnGSztWDjFvMEGjqHsq-12" value="&lt;div&gt;v2.4.0-beta&lt;/div&gt;" style="text;html=1;align=center;verticalAlign=middle;resizable=0;points=[];autosize=1;strokeColor=none;fillColor=none;fontFamily=Helvetica;fontSize=16;fontColor=default;fontStyle=0;labelBackgroundColor=none;" parent="1" vertex="1">
          <mxGeometry x="2490" y="330" width="100" height="30" as="geometry" />
        </mxCell>
        <mxCell id="xvnGSztWDjFvMEGjqHsq-15" value="joao_feat1" style="whiteSpace=wrap;html=1;fontSize=16;verticalAlign=middle;fillColor=#a0522d;strokeColor=#6D1F00;fontStyle=0;labelBackgroundColor=none;fontColor=#ffffff;" parent="1" vertex="1">
          <mxGeometry x="3159" y="490" width="120" height="40" as="geometry" />
        </mxCell>
        <mxCell id="xvnGSztWDjFvMEGjqHsq-16" value="1510" style="ellipse;whiteSpace=wrap;html=1;aspect=fixed;fillColor=#fad9d5;strokeColor=#ae4132;labelPosition=center;verticalLabelPosition=top;align=center;verticalAlign=bottom;fontStyle=0;labelBackgroundColor=none;fontSize=16;fontColor=default;fontFamily=Helvetica;" parent="1" vertex="1">
          <mxGeometry x="2200" y="490" width="40" height="40" as="geometry" />
        </mxCell>
        <mxCell id="xvnGSztWDjFvMEGjqHsq-22" style="edgeStyle=orthogonalEdgeStyle;shape=connector;curved=1;rounded=1;orthogonalLoop=1;jettySize=auto;html=1;entryX=0.175;entryY=0.475;entryDx=0;entryDy=0;entryPerimeter=0;dashed=1;strokeColor=#ae4132;align=center;verticalAlign=middle;fontFamily=Helvetica;fontSize=16;fontColor=default;fontStyle=0;labelBackgroundColor=none;endArrow=none;endFill=0;fillColor=#fad9d5;" parent="1" source="xvnGSztWDjFvMEGjqHsq-16" target="xvnGSztWDjFvMEGjqHsq-15" edge="1">
          <mxGeometry relative="1" as="geometry" />
        </mxCell>
        <mxCell id="LOD-dvkLbclwCgtQcdtd-3" value="" style="edgeStyle=orthogonalEdgeStyle;shape=connector;curved=1;rounded=1;orthogonalLoop=1;jettySize=auto;html=1;entryX=0;entryY=0.5;entryDx=0;entryDy=0;dashed=1;strokeColor=#b46504;align=center;verticalAlign=middle;fontFamily=Helvetica;fontSize=16;fontColor=default;fontStyle=0;labelBackgroundColor=none;endArrow=none;endFill=0;fillColor=#fad7ac;" edge="1" parent="1" source="GIleygXYsajchvQRSn_2-63" target="LOD-dvkLbclwCgtQcdtd-1">
          <mxGeometry relative="1" as="geometry">
            <mxPoint x="560" y="620" as="sourcePoint" />
            <mxPoint x="2360" y="620" as="targetPoint" />
          </mxGeometry>
        </mxCell>
        <mxCell id="LOD-dvkLbclwCgtQcdtd-1" value="1579" style="ellipse;whiteSpace=wrap;html=1;aspect=fixed;fillColor=#fad7ac;strokeColor=#b46504;labelPosition=center;verticalLabelPosition=top;align=center;verticalAlign=bottom;fontStyle=0;labelBackgroundColor=none;fontSize=16;" vertex="1" parent="1">
          <mxGeometry x="600" y="600" width="40" height="40" as="geometry" />
        </mxCell>
        <mxCell id="LOD-dvkLbclwCgtQcdtd-5" value="" style="edgeStyle=orthogonalEdgeStyle;shape=connector;curved=1;rounded=1;orthogonalLoop=1;jettySize=auto;html=1;entryX=0;entryY=0.5;entryDx=0;entryDy=0;dashed=1;strokeColor=#b46504;align=center;verticalAlign=middle;fontFamily=Helvetica;fontSize=16;fontColor=default;fontStyle=0;labelBackgroundColor=none;endArrow=none;endFill=0;fillColor=#fad7ac;" edge="1" parent="1" source="LOD-dvkLbclwCgtQcdtd-1" target="LOD-dvkLbclwCgtQcdtd-4">
          <mxGeometry relative="1" as="geometry">
            <mxPoint x="640" y="620" as="sourcePoint" />
            <mxPoint x="2360" y="620" as="targetPoint" />
          </mxGeometry>
        </mxCell>
        <mxCell id="LOD-dvkLbclwCgtQcdtd-8" style="edgeStyle=orthogonalEdgeStyle;shape=connector;curved=1;rounded=1;orthogonalLoop=1;jettySize=auto;html=1;entryX=0;entryY=0.5;entryDx=0;entryDy=0;dashed=1;strokeColor=#b46504;align=center;verticalAlign=middle;fontFamily=Helvetica;fontSize=16;fontColor=default;fontStyle=0;labelBackgroundColor=none;endArrow=none;endFill=0;fillColor=#fad7ac;" edge="1" parent="1" source="LOD-dvkLbclwCgtQcdtd-4" target="LOD-dvkLbclwCgtQcdtd-6">
          <mxGeometry relative="1" as="geometry" />
        </mxCell>
        <mxCell id="LOD-dvkLbclwCgtQcdtd-37" style="edgeStyle=orthogonalEdgeStyle;shape=connector;curved=1;rounded=1;orthogonalLoop=1;jettySize=auto;html=1;entryX=0;entryY=0.5;entryDx=0;entryDy=0;dashed=1;strokeColor=#b46504;align=center;verticalAlign=middle;fontFamily=Helvetica;fontSize=16;fontColor=default;fontStyle=0;labelBackgroundColor=none;endArrow=none;endFill=0;fillColor=#fad7ac;" edge="1" parent="1" source="LOD-dvkLbclwCgtQcdtd-4" target="LOD-dvkLbclwCgtQcdtd-24">
          <mxGeometry relative="1" as="geometry" />
        </mxCell>
        <mxCell id="LOD-dvkLbclwCgtQcdtd-4" value="1523" style="ellipse;whiteSpace=wrap;html=1;aspect=fixed;fillColor=#fad7ac;strokeColor=#b46504;labelPosition=center;verticalLabelPosition=top;align=center;verticalAlign=bottom;fontStyle=0;labelBackgroundColor=none;fontSize=16;" vertex="1" parent="1">
          <mxGeometry x="680" y="600" width="40" height="40" as="geometry" />
        </mxCell>
        <mxCell id="LOD-dvkLbclwCgtQcdtd-11" style="edgeStyle=orthogonalEdgeStyle;shape=connector;curved=1;rounded=1;orthogonalLoop=1;jettySize=auto;html=1;entryX=0;entryY=0.5;entryDx=0;entryDy=0;dashed=1;strokeColor=#56517e;align=center;verticalAlign=middle;fontFamily=Helvetica;fontSize=16;fontColor=default;fontStyle=0;labelBackgroundColor=none;endArrow=none;endFill=0;fillColor=#d0cee2;" edge="1" parent="1" source="LOD-dvkLbclwCgtQcdtd-6" target="Hf0nUSn8OMHUZp1qof5B-9">
          <mxGeometry relative="1" as="geometry" />
        </mxCell>
        <mxCell id="LOD-dvkLbclwCgtQcdtd-6" value="" style="ellipse;whiteSpace=wrap;html=1;aspect=fixed;fillColor=#d0cee2;strokeColor=#56517e;labelPosition=center;verticalLabelPosition=top;align=center;verticalAlign=bottom;fontStyle=0;labelBackgroundColor=none;fontSize=16;fontFamily=Helvetica;fontColor=default;" vertex="1" parent="1">
          <mxGeometry x="840" y="200" width="40" height="40" as="geometry" />
        </mxCell>
        <mxCell id="LOD-dvkLbclwCgtQcdtd-12" value="2125" style="ellipse;whiteSpace=wrap;html=1;aspect=fixed;fillColor=#fad7ac;strokeColor=#b46504;labelPosition=center;verticalLabelPosition=top;align=center;verticalAlign=bottom;fontStyle=0;labelBackgroundColor=none;fontSize=16;" vertex="1" parent="1">
          <mxGeometry x="1320" y="600" width="40" height="40" as="geometry" />
        </mxCell>
        <mxCell id="LOD-dvkLbclwCgtQcdtd-15" value="" style="edgeStyle=orthogonalEdgeStyle;shape=connector;curved=1;rounded=1;orthogonalLoop=1;jettySize=auto;html=1;entryX=0;entryY=0.5;entryDx=0;entryDy=0;dashed=1;strokeColor=#b46504;align=center;verticalAlign=middle;fontFamily=Helvetica;fontSize=16;fontColor=default;fontStyle=0;labelBackgroundColor=none;endArrow=none;endFill=0;fillColor=#fad7ac;" edge="1" parent="1" source="LOD-dvkLbclwCgtQcdtd-12" target="LOD-dvkLbclwCgtQcdtd-14">
          <mxGeometry relative="1" as="geometry">
            <mxPoint x="1360" y="620" as="sourcePoint" />
            <mxPoint x="2760" y="620" as="targetPoint" />
          </mxGeometry>
        </mxCell>
        <mxCell id="LOD-dvkLbclwCgtQcdtd-51" style="edgeStyle=orthogonalEdgeStyle;shape=connector;curved=1;rounded=1;orthogonalLoop=1;jettySize=auto;html=1;entryX=0;entryY=0.5;entryDx=0;entryDy=0;dashed=1;strokeColor=#b46504;align=center;verticalAlign=middle;fontFamily=Helvetica;fontSize=16;fontColor=default;fontStyle=0;labelBackgroundColor=none;endArrow=none;endFill=0;fillColor=#fad7ac;" edge="1" parent="1" source="LOD-dvkLbclwCgtQcdtd-14" target="LOD-dvkLbclwCgtQcdtd-49">
          <mxGeometry relative="1" as="geometry" />
        </mxCell>
        <mxCell id="LOD-dvkLbclwCgtQcdtd-14" value="2140" style="ellipse;whiteSpace=wrap;html=1;aspect=fixed;fillColor=#fad7ac;strokeColor=#b46504;labelPosition=center;verticalLabelPosition=top;align=center;verticalAlign=bottom;fontStyle=0;labelBackgroundColor=none;fontSize=16;" vertex="1" parent="1">
          <mxGeometry x="1400" y="600" width="40" height="40" as="geometry" />
        </mxCell>
        <mxCell id="LOD-dvkLbclwCgtQcdtd-38" style="edgeStyle=orthogonalEdgeStyle;shape=connector;curved=1;rounded=1;orthogonalLoop=1;jettySize=auto;html=1;entryX=0;entryY=0.5;entryDx=0;entryDy=0;dashed=1;strokeColor=#b46504;align=center;verticalAlign=middle;fontFamily=Helvetica;fontSize=16;fontColor=default;fontStyle=0;labelBackgroundColor=none;endArrow=none;endFill=0;fillColor=#fad7ac;" edge="1" parent="1" source="LOD-dvkLbclwCgtQcdtd-24" target="LOD-dvkLbclwCgtQcdtd-35">
          <mxGeometry relative="1" as="geometry" />
        </mxCell>
        <mxCell id="LOD-dvkLbclwCgtQcdtd-39" style="edgeStyle=orthogonalEdgeStyle;shape=connector;curved=1;rounded=1;orthogonalLoop=1;jettySize=auto;html=1;entryX=0;entryY=0.5;entryDx=0;entryDy=0;dashed=1;strokeColor=#b46504;align=center;verticalAlign=middle;fontFamily=Helvetica;fontSize=16;fontColor=default;fontStyle=0;labelBackgroundColor=none;endArrow=none;endFill=0;fillColor=#fad7ac;" edge="1" parent="1" source="LOD-dvkLbclwCgtQcdtd-24" target="LOD-dvkLbclwCgtQcdtd-12">
          <mxGeometry relative="1" as="geometry" />
        </mxCell>
        <mxCell id="LOD-dvkLbclwCgtQcdtd-24" value="1877" style="ellipse;whiteSpace=wrap;html=1;aspect=fixed;fillColor=#fad7ac;strokeColor=#b46504;labelPosition=center;verticalLabelPosition=top;align=center;verticalAlign=bottom;fontStyle=0;labelBackgroundColor=none;fontSize=16;" vertex="1" parent="1">
          <mxGeometry x="1000" y="600" width="40" height="40" as="geometry" />
        </mxCell>
        <mxCell id="LOD-dvkLbclwCgtQcdtd-33" style="edgeStyle=orthogonalEdgeStyle;shape=connector;curved=1;rounded=1;orthogonalLoop=1;jettySize=auto;html=1;entryX=0;entryY=0.5;entryDx=0;entryDy=0;dashed=1;strokeColor=#56517e;align=center;verticalAlign=middle;fontFamily=Helvetica;fontSize=16;fontColor=default;fontStyle=0;labelBackgroundColor=none;endArrow=none;endFill=0;fillColor=#d0cee2;" edge="1" parent="1" source="LOD-dvkLbclwCgtQcdtd-31" target="LOD-dvkLbclwCgtQcdtd-6">
          <mxGeometry relative="1" as="geometry" />
        </mxCell>
        <mxCell id="LOD-dvkLbclwCgtQcdtd-31" value="" style="ellipse;whiteSpace=wrap;html=1;aspect=fixed;fillColor=#d0cee2;strokeColor=#56517e;labelPosition=center;verticalLabelPosition=top;align=center;verticalAlign=bottom;fontStyle=0;labelBackgroundColor=none;fontSize=16;" vertex="1" parent="1">
          <mxGeometry x="520" y="200" width="40" height="40" as="geometry" />
        </mxCell>
        <mxCell id="LOD-dvkLbclwCgtQcdtd-42" value="" style="edgeStyle=orthogonalEdgeStyle;shape=connector;curved=1;rounded=1;orthogonalLoop=1;jettySize=auto;html=1;dashed=1;strokeColor=#56517e;align=center;verticalAlign=middle;fontFamily=Helvetica;fontSize=16;fontColor=default;fontStyle=0;labelBackgroundColor=none;endArrow=none;endFill=0;fillColor=#d0cee2;" edge="1" parent="1" source="LOD-dvkLbclwCgtQcdtd-35" target="LOD-dvkLbclwCgtQcdtd-41">
          <mxGeometry relative="1" as="geometry" />
        </mxCell>
        <mxCell id="LOD-dvkLbclwCgtQcdtd-35" value="" style="ellipse;whiteSpace=wrap;html=1;aspect=fixed;fillColor=#d0cee2;strokeColor=#56517e;labelPosition=center;verticalLabelPosition=top;align=center;verticalAlign=bottom;fontStyle=0;labelBackgroundColor=none;fontSize=16;" vertex="1" parent="1">
          <mxGeometry x="1160" y="200" width="40" height="40" as="geometry" />
        </mxCell>
        <mxCell id="LOD-dvkLbclwCgtQcdtd-44" value="" style="edgeStyle=orthogonalEdgeStyle;shape=connector;curved=1;rounded=1;orthogonalLoop=1;jettySize=auto;html=1;dashed=1;strokeColor=#56517e;align=center;verticalAlign=middle;fontFamily=Helvetica;fontSize=16;fontColor=default;fontStyle=0;labelBackgroundColor=none;endArrow=none;endFill=0;fillColor=#d0cee2;" edge="1" parent="1" source="LOD-dvkLbclwCgtQcdtd-41" target="LOD-dvkLbclwCgtQcdtd-43">
          <mxGeometry relative="1" as="geometry" />
        </mxCell>
        <mxCell id="LOD-dvkLbclwCgtQcdtd-41" value="" style="ellipse;whiteSpace=wrap;html=1;aspect=fixed;fillColor=#d0cee2;strokeColor=#56517e;labelPosition=center;verticalLabelPosition=top;align=center;verticalAlign=bottom;fontStyle=0;labelBackgroundColor=none;fontSize=16;" vertex="1" parent="1">
          <mxGeometry x="1280" y="200" width="40" height="40" as="geometry" />
        </mxCell>
        <mxCell id="LOD-dvkLbclwCgtQcdtd-45" style="edgeStyle=orthogonalEdgeStyle;shape=connector;curved=1;rounded=1;orthogonalLoop=1;jettySize=auto;html=1;entryX=0;entryY=0.5;entryDx=0;entryDy=0;dashed=1;strokeColor=#56517e;align=center;verticalAlign=middle;fontFamily=Helvetica;fontSize=16;fontColor=default;fontStyle=0;labelBackgroundColor=none;endArrow=none;endFill=0;fillColor=#d0cee2;" edge="1" parent="1" source="LOD-dvkLbclwCgtQcdtd-43" target="Hf0nUSn8OMHUZp1qof5B-11">
          <mxGeometry relative="1" as="geometry" />
        </mxCell>
        <mxCell id="LOD-dvkLbclwCgtQcdtd-43" value="" style="ellipse;whiteSpace=wrap;html=1;aspect=fixed;fillColor=#d0cee2;strokeColor=#56517e;labelPosition=center;verticalLabelPosition=top;align=center;verticalAlign=bottom;fontStyle=0;labelBackgroundColor=none;fontSize=16;" vertex="1" parent="1">
          <mxGeometry x="1360" y="200" width="40" height="40" as="geometry" />
        </mxCell>
        <mxCell id="LOD-dvkLbclwCgtQcdtd-50" value="" style="edgeStyle=orthogonalEdgeStyle;shape=connector;curved=1;rounded=1;orthogonalLoop=1;jettySize=auto;html=1;dashed=1;strokeColor=#ae4132;align=center;verticalAlign=middle;fontFamily=Helvetica;fontSize=16;fontColor=default;fontStyle=0;labelBackgroundColor=none;endArrow=none;endFill=0;fillColor=#fad9d5;" edge="1" parent="1" source="LOD-dvkLbclwCgtQcdtd-46" target="LOD-dvkLbclwCgtQcdtd-49">
          <mxGeometry relative="1" as="geometry" />
        </mxCell>
        <mxCell id="LOD-dvkLbclwCgtQcdtd-46" value="" style="ellipse;whiteSpace=wrap;html=1;aspect=fixed;fillColor=#fad9d5;strokeColor=#ae4132;labelPosition=center;verticalLabelPosition=top;align=center;verticalAlign=bottom;fontStyle=1;labelBackgroundColor=none;fontSize=16;" vertex="1" parent="1">
          <mxGeometry x="1440" y="440" width="40" height="40" as="geometry" />
        </mxCell>
        <mxCell id="LOD-dvkLbclwCgtQcdtd-52" style="edgeStyle=orthogonalEdgeStyle;shape=connector;curved=1;rounded=1;orthogonalLoop=1;jettySize=auto;html=1;entryX=0;entryY=0.5;entryDx=0;entryDy=0;dashed=1;strokeColor=#ae4132;align=center;verticalAlign=middle;fontFamily=Helvetica;fontSize=16;fontColor=default;fontStyle=0;labelBackgroundColor=none;endArrow=none;endFill=0;fillColor=#fad9d5;" edge="1" parent="1" source="LOD-dvkLbclwCgtQcdtd-49" target="GIleygXYsajchvQRSn_2-38">
          <mxGeometry relative="1" as="geometry" />
        </mxCell>
        <mxCell id="LOD-dvkLbclwCgtQcdtd-49" value="" style="ellipse;whiteSpace=wrap;html=1;aspect=fixed;fillColor=#fad9d5;strokeColor=#ae4132;labelPosition=center;verticalLabelPosition=top;align=center;verticalAlign=bottom;fontStyle=1;labelBackgroundColor=none;fontSize=16;" vertex="1" parent="1">
          <mxGeometry x="1560" y="440" width="40" height="40" as="geometry" />
        </mxCell>
        <mxCell id="LOD-dvkLbclwCgtQcdtd-53" value="v2.2.0-thiago" style="text;html=1;align=center;verticalAlign=middle;resizable=0;points=[];autosize=1;strokeColor=none;fillColor=none;fontFamily=Helvetica;fontSize=16;fontColor=default;fontStyle=0;labelBackgroundColor=none;" vertex="1" parent="1">
          <mxGeometry x="-120" y="640" width="120" height="30" as="geometry" />
        </mxCell>
        <mxCell id="LOD-dvkLbclwCgtQcdtd-54" value="v2.3.0-thiago" style="text;html=1;align=center;verticalAlign=middle;resizable=0;points=[];autosize=1;strokeColor=none;fillColor=none;fontFamily=Helvetica;fontSize=16;fontColor=default;fontStyle=0;labelBackgroundColor=none;" vertex="1" parent="1">
          <mxGeometry x="640" y="640" width="120" height="30" as="geometry" />
        </mxCell>
        <mxCell id="LOD-dvkLbclwCgtQcdtd-74" style="edgeStyle=orthogonalEdgeStyle;shape=connector;curved=1;rounded=1;orthogonalLoop=1;jettySize=auto;html=1;entryX=0;entryY=0.5;entryDx=0;entryDy=0;dashed=1;strokeColor=#b46504;align=center;verticalAlign=middle;fontFamily=Helvetica;fontSize=16;fontColor=default;fontStyle=0;labelBackgroundColor=none;endArrow=none;endFill=0;fillColor=#fad7ac;" edge="1" parent="1" source="LOD-dvkLbclwCgtQcdtd-58" target="LOD-dvkLbclwCgtQcdtd-60">
          <mxGeometry relative="1" as="geometry" />
        </mxCell>
        <mxCell id="LOD-dvkLbclwCgtQcdtd-58" value="2264" style="ellipse;whiteSpace=wrap;html=1;aspect=fixed;fillColor=#fad7ac;strokeColor=#b46504;labelPosition=center;verticalLabelPosition=top;align=center;verticalAlign=bottom;fontStyle=0;labelBackgroundColor=none;fontSize=16;" vertex="1" parent="1">
          <mxGeometry x="1960" y="600" width="40" height="40" as="geometry" />
        </mxCell>
        <mxCell id="LOD-dvkLbclwCgtQcdtd-75" style="edgeStyle=orthogonalEdgeStyle;shape=connector;curved=1;rounded=1;orthogonalLoop=1;jettySize=auto;html=1;entryX=0;entryY=0.5;entryDx=0;entryDy=0;dashed=1;strokeColor=#b46504;align=center;verticalAlign=middle;fontFamily=Helvetica;fontSize=16;fontColor=default;fontStyle=0;labelBackgroundColor=none;endArrow=none;endFill=0;fillColor=#fad7ac;" edge="1" parent="1" source="LOD-dvkLbclwCgtQcdtd-60" target="LOD-dvkLbclwCgtQcdtd-62">
          <mxGeometry relative="1" as="geometry" />
        </mxCell>
        <mxCell id="LOD-dvkLbclwCgtQcdtd-60" value="1629" style="ellipse;whiteSpace=wrap;html=1;aspect=fixed;fillColor=#fad7ac;strokeColor=#b46504;labelPosition=center;verticalLabelPosition=top;align=center;verticalAlign=bottom;fontStyle=0;labelBackgroundColor=none;fontSize=16;" vertex="1" parent="1">
          <mxGeometry x="2040" y="600" width="40" height="40" as="geometry" />
        </mxCell>
        <mxCell id="LOD-dvkLbclwCgtQcdtd-76" style="edgeStyle=orthogonalEdgeStyle;shape=connector;curved=1;rounded=1;orthogonalLoop=1;jettySize=auto;html=1;entryX=0;entryY=0.5;entryDx=0;entryDy=0;dashed=1;strokeColor=#b46504;align=center;verticalAlign=middle;fontFamily=Helvetica;fontSize=16;fontColor=default;fontStyle=0;labelBackgroundColor=none;endArrow=none;endFill=0;fillColor=#fad7ac;" edge="1" parent="1" source="LOD-dvkLbclwCgtQcdtd-62" target="LOD-dvkLbclwCgtQcdtd-64">
          <mxGeometry relative="1" as="geometry" />
        </mxCell>
        <mxCell id="LOD-dvkLbclwCgtQcdtd-62" value="2252" style="ellipse;whiteSpace=wrap;html=1;aspect=fixed;fillColor=#fad7ac;strokeColor=#b46504;labelPosition=center;verticalLabelPosition=top;align=center;verticalAlign=bottom;fontStyle=0;labelBackgroundColor=none;fontSize=16;" vertex="1" parent="1">
          <mxGeometry x="2120" y="600" width="40" height="40" as="geometry" />
        </mxCell>
        <mxCell id="LOD-dvkLbclwCgtQcdtd-77" style="edgeStyle=orthogonalEdgeStyle;shape=connector;curved=1;rounded=1;orthogonalLoop=1;jettySize=auto;html=1;entryX=0;entryY=0.5;entryDx=0;entryDy=0;dashed=1;strokeColor=#b46504;align=center;verticalAlign=middle;fontFamily=Helvetica;fontSize=16;fontColor=default;fontStyle=0;labelBackgroundColor=none;endArrow=none;endFill=0;fillColor=#fad7ac;" edge="1" parent="1" source="LOD-dvkLbclwCgtQcdtd-64" target="LOD-dvkLbclwCgtQcdtd-66">
          <mxGeometry relative="1" as="geometry" />
        </mxCell>
        <mxCell id="LOD-dvkLbclwCgtQcdtd-64" value="2291" style="ellipse;whiteSpace=wrap;html=1;aspect=fixed;fillColor=#fad7ac;strokeColor=#b46504;labelPosition=center;verticalLabelPosition=top;align=center;verticalAlign=bottom;fontStyle=0;labelBackgroundColor=none;fontSize=16;" vertex="1" parent="1">
          <mxGeometry x="2200" y="600" width="40" height="40" as="geometry" />
        </mxCell>
        <mxCell id="LOD-dvkLbclwCgtQcdtd-78" style="edgeStyle=orthogonalEdgeStyle;shape=connector;curved=1;rounded=1;orthogonalLoop=1;jettySize=auto;html=1;entryX=0;entryY=0.5;entryDx=0;entryDy=0;dashed=1;strokeColor=#b46504;align=center;verticalAlign=middle;fontFamily=Helvetica;fontSize=16;fontColor=default;fontStyle=0;labelBackgroundColor=none;endArrow=none;endFill=0;fillColor=#fad7ac;" edge="1" parent="1" source="LOD-dvkLbclwCgtQcdtd-66" target="LOD-dvkLbclwCgtQcdtd-67">
          <mxGeometry relative="1" as="geometry" />
        </mxCell>
        <mxCell id="LOD-dvkLbclwCgtQcdtd-66" value="2244" style="ellipse;whiteSpace=wrap;html=1;aspect=fixed;fillColor=#fad7ac;strokeColor=#b46504;labelPosition=center;verticalLabelPosition=top;align=center;verticalAlign=bottom;fontStyle=0;labelBackgroundColor=none;fontSize=16;" vertex="1" parent="1">
          <mxGeometry x="2280" y="600" width="40" height="40" as="geometry" />
        </mxCell>
        <mxCell id="LOD-dvkLbclwCgtQcdtd-80" style="edgeStyle=orthogonalEdgeStyle;shape=connector;curved=1;rounded=1;orthogonalLoop=1;jettySize=auto;html=1;entryX=0;entryY=0.5;entryDx=0;entryDy=0;dashed=1;strokeColor=#b46504;align=center;verticalAlign=middle;fontFamily=Helvetica;fontSize=16;fontColor=default;fontStyle=0;labelBackgroundColor=none;endArrow=none;endFill=0;fillColor=#fad7ac;" edge="1" parent="1" source="LOD-dvkLbclwCgtQcdtd-67" target="GIleygXYsajchvQRSn_2-75">
          <mxGeometry relative="1" as="geometry" />
        </mxCell>
        <mxCell id="LOD-dvkLbclwCgtQcdtd-81" style="edgeStyle=orthogonalEdgeStyle;shape=connector;curved=1;rounded=1;orthogonalLoop=1;jettySize=auto;html=1;entryX=0;entryY=0.5;entryDx=0;entryDy=0;dashed=1;strokeColor=#b46504;align=center;verticalAlign=middle;fontFamily=Helvetica;fontSize=16;fontColor=default;fontStyle=0;labelBackgroundColor=none;endArrow=none;endFill=0;fillColor=#fad7ac;" edge="1" parent="1" source="LOD-dvkLbclwCgtQcdtd-67" target="X2XL2pnRzJB7zU3urfAD-32">
          <mxGeometry relative="1" as="geometry" />
        </mxCell>
        <mxCell id="LOD-dvkLbclwCgtQcdtd-67" value="2278" style="ellipse;whiteSpace=wrap;html=1;aspect=fixed;fillColor=#fad7ac;strokeColor=#b46504;labelPosition=center;verticalLabelPosition=top;align=center;verticalAlign=bottom;fontStyle=0;labelBackgroundColor=none;fontSize=16;" vertex="1" parent="1">
          <mxGeometry x="2360" y="600" width="40" height="40" as="geometry" />
        </mxCell>
        <mxCell id="LOD-dvkLbclwCgtQcdtd-72" value="" style="edgeStyle=orthogonalEdgeStyle;shape=connector;curved=1;rounded=1;orthogonalLoop=1;jettySize=auto;html=1;entryX=0;entryY=0.5;entryDx=0;entryDy=0;dashed=1;strokeColor=#b46504;align=center;verticalAlign=middle;fontFamily=Helvetica;fontSize=16;fontColor=default;fontStyle=0;labelBackgroundColor=none;endArrow=none;endFill=0;fillColor=#fad7ac;" edge="1" parent="1" source="LOD-dvkLbclwCgtQcdtd-14" target="LOD-dvkLbclwCgtQcdtd-56">
          <mxGeometry relative="1" as="geometry">
            <mxPoint x="1440" y="620" as="sourcePoint" />
            <mxPoint x="2880" y="620" as="targetPoint" />
          </mxGeometry>
        </mxCell>
        <mxCell id="LOD-dvkLbclwCgtQcdtd-56" value="1339" style="ellipse;whiteSpace=wrap;html=1;aspect=fixed;fillColor=#fad7ac;strokeColor=#b46504;labelPosition=center;verticalLabelPosition=top;align=center;verticalAlign=bottom;fontStyle=0;labelBackgroundColor=none;fontSize=16;" vertex="1" parent="1">
          <mxGeometry x="1880" y="600" width="40" height="40" as="geometry" />
        </mxCell>
        <mxCell id="LOD-dvkLbclwCgtQcdtd-73" style="edgeStyle=orthogonalEdgeStyle;shape=connector;curved=1;rounded=1;orthogonalLoop=1;jettySize=auto;html=1;entryX=0;entryY=0.5;entryDx=0;entryDy=0;dashed=1;strokeColor=#b46504;align=center;verticalAlign=middle;fontFamily=Helvetica;fontSize=16;fontColor=default;fontStyle=0;labelBackgroundColor=none;endArrow=none;endFill=0;fillColor=#fad7ac;" edge="1" parent="1" source="LOD-dvkLbclwCgtQcdtd-56" target="LOD-dvkLbclwCgtQcdtd-58">
          <mxGeometry relative="1" as="geometry" />
        </mxCell>
      </root>
    </mxGraphModel>
  </diagram>
</mxfile>
